<svg xmlns="http://www.w3.org/2000/svg" xmlns:xlink="http://www.w3.org/1999/xlink" width="628" height="730pt" viewBox="0 0 471 729.7"><g id="graph0" class="graph" transform="scale(1 1) rotate(0) translate(4 725.7)"><title>oneDegreeRelationshipsDiagram</title><polygon fill="#fff" stroke="transparent" points="-4 4 -4 -725.7 467 -725.7 467 4 -4 4"/><text x="72.494" y="-7.3" fill="#000" font-family="Helvetica,sans-Serif" font-size="11" text-anchor="middle">Generated by SchemaSpy</text><g id="node1" class="node"><title>drug_sales</title><g id="a_node1"><a target="_top" xlink:href="../../tables/drug_sales.html" xlink:title="drug_sales"><polygon fill="#fff" stroke="transparent" points="289.5 -568.7 289.5 -717.7 426.5 -717.7 426.5 -568.7 289.5 -568.7"/><polygon fill="#f5f5f5" stroke="transparent" points="290 -694.2 290 -717.2 427 -717.2 427 -694.2 290 -694.2"/><polygon fill="none" stroke="#000" points="290 -694.2 290 -717.2 427 -717.2 427 -694.2 290 -694.2"/><text x="295" y="-702.8" fill="#000" font-family="Helvetica,sans-Serif" font-size="11" font-weight="bold" text-anchor="start">drug_sales</text><text x="392.044" y="-702.3" fill="#000" font-family="Helvetica,sans-Serif" font-size="11" text-anchor="start">[table]</text><polygon fill="none" stroke="#000" points="290 -672.2 290 -694.2 427 -694.2 427 -672.2 290 -672.2"/><image width="11" height="12" x="295" y="-689.2" preserveAspectRatio="xMinYMin meet" xlink:href="../../images/primaryKeys.png"/><text x="310" y="-679.3" fill="#000" font-family="Helvetica,sans-Serif" font-size="11" text-anchor="start">sale_id</text><polygon fill="none" stroke="#000" points="290 -650.2 290 -672.2 427 -672.2 427 -650.2 290 -650.2"/><image width="11" height="12" x="295" y="-667.2" preserveAspectRatio="xMinYMin meet" xlink:href="../../images/foreignKeys.png"/><text x="310" y="-657.3" fill="#000" font-family="Helvetica,sans-Serif" font-size="11" text-anchor="start">drug_id</text><polygon fill="none" stroke="#000" points="290 -628.2 290 -650.2 427 -650.2 427 -628.2 290 -628.2"/><image width="11" height="12" x="295" y="-645.2" preserveAspectRatio="xMinYMin meet" xlink:href="../../images/foreignKeys.png"/><text x="310" y="-635.3" fill="#000" font-family="Helvetica,sans-Serif" font-size="11" text-anchor="start">pid</text><polygon fill="none" stroke="#000" points="290 -606.2 290 -628.2 427 -628.2 427 -606.2 290 -606.2"/><image width="11" height="12" x="295" y="-623.2" preserveAspectRatio="xMinYMin meet" xlink:href="../../images/foreignKeys.png"/><text x="310" y="-613.3" fill="#000" font-family="Helvetica,sans-Serif" font-size="11" text-anchor="start">encounter</text><polygon fill="none" stroke="#000" points="290 -587.2 290 -606.2 427 -606.2 427 -587.2 290 -587.2"/><text x="293" y="-593.3" fill="#000" font-family="Helvetica,sans-Serif" font-size="11" text-anchor="start">...</text><polygon fill="#fff" stroke="transparent" points="290 -568.2 290 -587.2 357 -587.2 357 -568.2 290 -568.2"/><polygon fill="none" stroke="#000" points="290 -568.2 290 -587.2 357 -587.2 357 -568.2 290 -568.2"/><text x="293" y="-574.3" fill="#000" font-family="Helvetica,sans-Serif" font-size="11" text-anchor="start">&lt; 3</text><polygon fill="#fff" stroke="transparent" points="357 -568.2 357 -587.2 392 -587.2 392 -568.2 357 -568.2"/><polygon fill="none" stroke="#000" points="357 -568.2 357 -587.2 392 -587.2 392 -568.2 357 -568.2"/><polygon fill="#fff" stroke="transparent" points="392 -568.2 392 -587.2 427 -587.2 427 -568.2 392 -568.2"/><polygon fill="none" stroke="#000" points="392 -568.2 392 -587.2 427 -587.2 427 -568.2 392 -568.2"/></a></g></g><g id="node2" class="node"><title>drugs</title><g id="a_node2"><a target="_top" xlink:href="../../tables/drugs.html" xlink:title="drugs"><polygon fill="#fff" stroke="transparent" points="8 -38.2 8 -568.2 212 -568.2 212 -38.2 8 -38.2"/><polygon fill="#f5f5f5" stroke="transparent" points="10 -543.2 10 -566.2 210 -566.2 210 -543.2 10 -543.2"/><polygon fill="none" stroke="#000" points="10 -543.2 10 -566.2 210 -566.2 210 -543.2 10 -543.2"/><text x="15" y="-551.8" fill="#000" font-family="Helvetica,sans-Serif" font-size="11" font-weight="bold" text-anchor="start">drugs</text><text x="175.044" y="-551.3" fill="#000" font-family="Helvetica,sans-Serif" font-size="11" text-anchor="start">[table]</text><polygon fill="none" stroke="#000" points="10 -521.2 10 -543.2 143 -543.2 143 -521.2 10 -521.2"/><image width="11" height="12" x="15" y="-538.2" preserveAspectRatio="xMinYMin meet" xlink:href="../../images/primaryKeys.png"/><text x="30" y="-528.3" fill="#000" font-family="Helvetica,sans-Serif" font-size="11" text-anchor="start">drug_id</text><polygon fill="none" stroke="#000" points="143 -521.2 143 -543.2 210 -543.2 210 -521.2 143 -521.2"/><text x="146" y="-528.9" fill="#000" font-family="Helvetica,sans-Serif" font-size="11" text-anchor="start">int[10]</text><polygon fill="#fff" stroke="transparent" points="10 -499.2 10 -521.2 143 -521.2 143 -499.2 10 -499.2"/><polygon fill="none" stroke="#000" points="10 -499.2 10 -521.2 143 -521.2 143 -499.2 10 -499.2"/><text x="30" y="-506.3" fill="#000" font-family="Helvetica,sans-Serif" font-size="11" text-anchor="start">uuid</text><polygon fill="none" stroke="#000" points="143 -499.2 143 -521.2 210 -521.2 210 -499.2 143 -499.2"/><text x="146" y="-506.9" fill="#000" font-family="Helvetica,sans-Serif" font-size="11" text-anchor="start">binary[16]</text><polygon fill="none" stroke="#000" points="10 -477.2 10 -499.2 143 -499.2 143 -477.2 10 -477.2"/><text x="30" y="-484.3" fill="#000" font-family="Helvetica,sans-Serif" font-size="11" text-anchor="start">name</text><polygon fill="none" stroke="#000" points="143 -477.2 143 -499.2 210 -499.2 210 -477.2 143 -477.2"/><text x="145.936" y="-484.9" fill="#000" font-family="Helvetica,sans-Serif" font-size="11" text-anchor="start">varchar[255]</text><polygon fill="none" stroke="#000" points="10 -455.2 10 -477.2 143 -477.2 143 -455.2 10 -455.2"/><text x="30" y="-462.3" fill="#000" font-family="Helvetica,sans-Serif" font-size="11" text-anchor="start">ndc_number</text><polygon fill="none" stroke="#000" points="143 -455.2 143 -477.2 210 -477.2 210 -455.2 143 -455.2"/><text x="146" y="-462.9" fill="#000" font-family="Helvetica,sans-Serif" font-size="11" text-anchor="start">varchar[20]</text><polygon fill="none" stroke="#000" points="10 -433.2 10 -455.2 143 -455.2 143 -433.2 10 -433.2"/><text x="30" y="-440.3" fill="#000" font-family="Helvetica,sans-Serif" font-size="11" text-anchor="start">on_order</text><polygon fill="none" stroke="#000" points="143 -433.2 143 -455.2 210 -455.2 210 -433.2 143 -433.2"/><text x="146" y="-440.9" fill="#000" font-family="Helvetica,sans-Serif" font-size="11" text-anchor="start">int[10]</text><polygon fill="none" stroke="#000" points="10 -411.2 10 -433.2 143 -433.2 143 -411.2 10 -411.2"/><text x="30" y="-418.3" fill="#000" font-family="Helvetica,sans-Serif" font-size="11" text-anchor="start">reorder_point</text><polygon fill="none" stroke="#000" points="143 -411.2 143 -433.2 210 -433.2 210 -411.2 143 -411.2"/><text x="146" y="-418.9" fill="#000" font-family="Helvetica,sans-Serif" font-size="11" text-anchor="start">float[12]</text><polygon fill="none" stroke="#000" points="10 -389.2 10 -411.2 143 -411.2 143 -389.2 10 -389.2"/><text x="30" y="-396.3" fill="#000" font-family="Helvetica,sans-Serif" font-size="11" text-anchor="start">max_level</text><polygon fill="none" stroke="#000" points="143 -389.2 143 -411.2 210 -411.2 210 -389.2 143 -389.2"/><text x="146" y="-396.9" fill="#000" font-family="Helvetica,sans-Serif" font-size="11" text-anchor="start">float[12]</text><polygon fill="none" stroke="#000" points="10 -367.2 10 -389.2 143 -389.2 143 -367.2 10 -367.2"/><text x="30" y="-374.3" fill="#000" font-family="Helvetica,sans-Serif" font-size="11" text-anchor="start">last_notify</text><polygon fill="none" stroke="#000" points="143 -367.2 143 -389.2 210 -389.2 210 -367.2 143 -367.2"/><text x="146" y="-374.9" fill="#000" font-family="Helvetica,sans-Serif" font-size="11" text-anchor="start">date[10]</text><polygon fill="none" stroke="#000" points="10 -345.2 10 -367.2 143 -367.2 143 -345.2 10 -345.2"/><text x="30" y="-352.3" fill="#000" font-family="Helvetica,sans-Serif" font-size="11" text-anchor="start">reactions</text><polygon fill="none" stroke="#000" points="143 -345.2 143 -367.2 210 -367.2 210 -345.2 143 -345.2"/><text x="146" y="-352.9" fill="#000" font-family="Helvetica,sans-Serif" font-size="11" text-anchor="start">text[65535]</text><polygon fill="none" stroke="#000" points="10 -323.2 10 -345.2 143 -345.2 143 -323.2 10 -323.2"/><text x="30" y="-330.3" fill="#000" font-family="Helvetica,sans-Serif" font-size="11" text-anchor="start">form</text><polygon fill="none" stroke="#000" points="143 -323.2 143 -345.2 210 -345.2 210 -323.2 143 -323.2"/><text x="146" y="-330.9" fill="#000" font-family="Helvetica,sans-Serif" font-size="11" text-anchor="start">varchar[31]</text><polygon fill="none" stroke="#000" points="10 -301.2 10 -323.2 143 -323.2 143 -301.2 10 -301.2"/><text x="30" y="-308.3" fill="#000" font-family="Helvetica,sans-Serif" font-size="11" text-anchor="start">size</text><polygon fill="none" stroke="#000" points="143 -301.2 143 -323.2 210 -323.2 210 -301.2 143 -301.2"/><text x="146" y="-308.9" fill="#000" font-family="Helvetica,sans-Serif" font-size="11" text-anchor="start">varchar[25]</text><polygon fill="none" stroke="#000" points="10 -279.2 10 -301.2 143 -301.2 143 -279.2 10 -279.2"/><text x="30" y="-286.3" fill="#000" font-family="Helvetica,sans-Serif" font-size="11" text-anchor="start">unit</text><polygon fill="none" stroke="#000" points="143 -279.2 143 -301.2 210 -301.2 210 -279.2 143 -279.2"/><text x="146" y="-286.9" fill="#000" font-family="Helvetica,sans-Serif" font-size="11" text-anchor="start">varchar[31]</text><polygon fill="none" stroke="#000" points="10 -257.2 10 -279.2 143 -279.2 143 -257.2 10 -257.2"/><text x="30" y="-264.3" fill="#000" font-family="Helvetica,sans-Serif" font-size="11" text-anchor="start">route</text><polygon fill="none" stroke="#000" points="143 -257.2 143 -279.2 210 -279.2 210 -257.2 143 -257.2"/><text x="146" y="-264.9" fill="#000" font-family="Helvetica,sans-Serif" font-size="11" text-anchor="start">varchar[31]</text><polygon fill="none" stroke="#000" points="10 -235.2 10 -257.2 143 -257.2 143 -235.2 10 -235.2"/><text x="30" y="-242.3" fill="#000" font-family="Helvetica,sans-Serif" font-size="11" text-anchor="start">substitute</text><polygon fill="none" stroke="#000" points="143 -235.2 143 -257.2 210 -257.2 210 -235.2 143 -235.2"/><text x="146" y="-242.9" fill="#000" font-family="Helvetica,sans-Serif" font-size="11" text-anchor="start">int[10]</text><polygon fill="none" stroke="#000" points="10 -213.2 10 -235.2 143 -235.2 143 -213.2 10 -213.2"/><text x="30" y="-220.3" fill="#000" font-family="Helvetica,sans-Serif" font-size="11" text-anchor="start">related_code</text><polygon fill="none" stroke="#000" points="143 -213.2 143 -235.2 210 -235.2 210 -213.2 143 -213.2"/><text x="145.936" y="-220.9" fill="#000" font-family="Helvetica,sans-Serif" font-size="11" text-anchor="start">varchar[255]</text><polygon fill="none" stroke="#000" points="10 -191.2 10 -213.2 143 -213.2 143 -191.2 10 -191.2"/><text x="30" y="-198.3" fill="#000" font-family="Helvetica,sans-Serif" font-size="11" text-anchor="start">cyp_factor</text><polygon fill="none" stroke="#000" points="143 -191.2 143 -213.2 210 -213.2 210 -191.2 143 -191.2"/><text x="146" y="-198.9" fill="#000" font-family="Helvetica,sans-Serif" font-size="11" text-anchor="start">float[12]</text><polygon fill="none" stroke="#000" points="10 -169.2 10 -191.2 143 -191.2 143 -169.2 10 -169.2"/><text x="30" y="-176.3" fill="#000" font-family="Helvetica,sans-Serif" font-size="11" text-anchor="start">active</text><polygon fill="none" stroke="#000" points="143 -169.2 143 -191.2 210 -191.2 210 -169.2 143 -169.2"/><text x="146" y="-176.9" fill="#000" font-family="Helvetica,sans-Serif" font-size="11" text-anchor="start">bit[1]</text><polygon fill="none" stroke="#000" points="10 -147.2 10 -169.2 143 -169.2 143 -147.2 10 -147.2"/><text x="30" y="-154.3" fill="#000" font-family="Helvetica,sans-Serif" font-size="11" text-anchor="start">allow_combining</text><polygon fill="none" stroke="#000" points="143 -147.2 143 -169.2 210 -169.2 210 -147.2 143 -147.2"/><text x="146" y="-154.9" fill="#000" font-family="Helvetica,sans-Serif" font-size="11" text-anchor="start">bit[1]</text><polygon fill="none" stroke="#000" points="10 -125.2 10 -147.2 143 -147.2 143 -125.2 10 -125.2"/><text x="30" y="-132.3" fill="#000" font-family="Helvetica,sans-Serif" font-size="11" text-anchor="start">allow_multiple</text><polygon fill="none" stroke="#000" points="143 -125.2 143 -147.2 210 -147.2 210 -125.2 143 -125.2"/><text x="146" y="-132.9" fill="#000" font-family="Helvetica,sans-Serif" font-size="11" text-anchor="start">bit[1]</text><polygon fill="none" stroke="#000" points="10 -103.2 10 -125.2 143 -125.2 143 -103.2 10 -103.2"/><text x="30" y="-110.3" fill="#000" font-family="Helvetica,sans-Serif" font-size="11" text-anchor="start">drug_code</text><polygon fill="none" stroke="#000" points="143 -103.2 143 -125.2 210 -125.2 210 -103.2 143 -103.2"/><text x="146" y="-110.9" fill="#000" font-family="Helvetica,sans-Serif" font-size="11" text-anchor="start">varchar[25]</text><polygon fill="none" stroke="#000" points="10 -81.2 10 -103.2 143 -103.2 143 -81.2 10 -81.2"/><text x="30" y="-88.3" fill="#000" font-family="Helvetica,sans-Serif" font-size="11" text-anchor="start">consumable</text><polygon fill="none" stroke="#000" points="143 -81.2 143 -103.2 210 -103.2 210 -81.2 143 -81.2"/><text x="146" y="-88.9" fill="#000" font-family="Helvetica,sans-Serif" font-size="11" text-anchor="start">bit[1]</text><polygon fill="none" stroke="#000" points="10 -59.2 10 -81.2 143 -81.2 143 -59.2 10 -59.2"/><text x="30" y="-66.3" fill="#000" font-family="Helvetica,sans-Serif" font-size="11" text-anchor="start">dispensable</text><polygon fill="none" stroke="#000" points="143 -59.2 143 -81.2 210 -81.2 210 -59.2 143 -59.2"/><text x="146" y="-66.9" fill="#000" font-family="Helvetica,sans-Serif" font-size="11" text-anchor="start">bit[1]</text><polygon fill="#fff" stroke="transparent" points="10 -40.2 10 -59.2 81 -59.2 81 -40.2 10 -40.2"/><polygon fill="none" stroke="#000" points="10 -40.2 10 -59.2 81 -59.2 81 -40.2 10 -40.2"/><text x="13" y="-46.3" fill="#000" font-family="Helvetica,sans-Serif" font-size="11" text-anchor="start">&lt; 0</text><polygon fill="#fff" stroke="transparent" points="81 -40.2 81 -59.2 143 -59.2 143 -40.2 81 -40.2"/><polygon fill="none" stroke="#000" points="81 -40.2 81 -59.2 143 -59.2 143 -40.2 81 -40.2"/><polygon fill="#fff" stroke="transparent" points="143 -40.2 143 -59.2 210 -59.2 210 -40.2 143 -40.2"/><polygon fill="none" stroke="#000" points="143 -40.2 143 -59.2 210 -59.2 210 -40.2 143 -40.2"/><text x="191.405" y="-46.3" fill="#000" font-family="Helvetica,sans-Serif" font-size="11" text-anchor="start">2 &gt;</text><polygon fill="none" stroke="#000" stroke-width="2" points="9 -39.2 9 -567.2 211 -567.2 211 -39.2 9 -39.2"/></a></g></g><g id="edge1" class="edge"><title>drug_sales:w-&gt;drugs:e</title><path fill="none" stroke="#000" d="M275.7333,-658.7382C230.7245,-640.904 271.9293,-532.2 210,-532.2"/><polygon fill="#000" stroke="#000" points="282.116 -659.84 289.388 -664.748 286.058 -660.52 290 -661.2 290 -661.2 290 -661.2 286.058 -660.52 290.612 -657.652 282.116 -659.84 282.116 -659.84"/><ellipse cx="278.963" cy="-659.295" fill="none" stroke="#000" rx="3.2" ry="3.2"/></g><g id="node3" class="node"><title>prescriptions</title><g id="a_node3"><a target="_top" xlink:href="../../tables/prescriptions.html" xlink:title="prescriptions"><polygon fill="#fff" stroke="transparent" points="261 -310.7 261 -547.7 455 -547.7 455 -310.7 261 -310.7"/><polygon fill="#f5f5f5" stroke="transparent" points="261 -524.2 261 -547.2 455 -547.2 455 -524.2 261 -524.2"/><polygon fill="none" stroke="#000" points="261 -524.2 261 -547.2 455 -547.2 455 -524.2 261 -524.2"/><text x="266" y="-532.8" fill="#000" font-family="Helvetica,sans-Serif" font-size="11" font-weight="bold" text-anchor="start">prescriptions</text><text x="420.044" y="-532.3" fill="#000" font-family="Helvetica,sans-Serif" font-size="11" text-anchor="start">[table]</text><polygon fill="none" stroke="#000" points="261 -502.2 261 -524.2 455 -524.2 455 -502.2 261 -502.2"/><image width="11" height="12" x="266" y="-519.2" preserveAspectRatio="xMinYMin meet" xlink:href="../../images/primaryKeys.png"/><text x="281" y="-509.3" fill="#000" font-family="Helvetica,sans-Serif" font-size="11" text-anchor="start">id</text><polygon fill="#fff" stroke="transparent" points="261 -480.2 261 -502.2 455 -502.2 455 -480.2 261 -480.2"/><polygon fill="none" stroke="#000" points="261 -480.2 261 -502.2 455 -502.2 455 -480.2 261 -480.2"/><text x="281" y="-487.3" fill="#000" font-family="Helvetica,sans-Serif" font-size="11" text-anchor="start">uuid</text><polygon fill="#fff" stroke="transparent" points="261 -458.2 261 -480.2 455 -480.2 455 -458.2 261 -458.2"/><polygon fill="none" stroke="#000" points="261 -458.2 261 -480.2 455 -480.2 455 -458.2 261 -458.2"/><image width="11" height="12" x="266" y="-475.2" preserveAspectRatio="xMinYMin meet" xlink:href="../../images/foreignKeys.png"/><text x="281" y="-465.3" fill="#000" font-family="Helvetica,sans-Serif" font-size="11" text-anchor="start">patient_id</text><polygon fill="none" stroke="#000" points="261 -436.2 261 -458.2 455 -458.2 455 -436.2 261 -436.2"/><image width="11" height="12" x="266" y="-453.2" preserveAspectRatio="xMinYMin meet" xlink:href="../../images/foreignKeys.png"/><text x="281" y="-443.3" fill="#000" font-family="Helvetica,sans-Serif" font-size="11" text-anchor="start">pharmacy_id</text><polygon fill="none" stroke="#000" points="261 -414.2 261 -436.2 455 -436.2 455 -414.2 261 -414.2"/><image width="11" height="12" x="266" y="-431.2" preserveAspectRatio="xMinYMin meet" xlink:href="../../images/foreignKeys.png"/><text x="281" y="-421.3" fill="#000" font-family="Helvetica,sans-Serif" font-size="11" text-anchor="start">provider_id</text><polygon fill="none" stroke="#000" points="261 -392.2 261 -414.2 455 -414.2 455 -392.2 261 -392.2"/><image width="11" height="12" x="266" y="-409.2" preserveAspectRatio="xMinYMin meet" xlink:href="../../images/foreignKeys.png"/><text x="281" y="-399.3" fill="#000" font-family="Helvetica,sans-Serif" font-size="11" text-anchor="start">drug_id</text><polygon fill="none" stroke="#000" points="261 -370.2 261 -392.2 455 -392.2 455 -370.2 261 -370.2"/><image width="11" height="12" x="266" y="-387.2" preserveAspectRatio="xMinYMin meet" xlink:href="../../images/foreignKeys.png"/><text x="281" y="-377.3" fill="#000" font-family="Helvetica,sans-Serif" font-size="11" text-anchor="start">created_by</text><polygon fill="none" stroke="#000" points="261 -348.2 261 -370.2 455 -370.2 455 -348.2 261 -348.2"/><image width="11" height="12" x="266" y="-365.2" preserveAspectRatio="xMinYMin meet" xlink:href="../../images/foreignKeys.png"/><text x="281" y="-355.3" fill="#000" font-family="Helvetica,sans-Serif" font-size="11" text-anchor="start">updated_by</text><polygon fill="none" stroke="#000" points="261 -329.2 261 -348.2 455 -348.2 455 -329.2 261 -329.2"/><text x="264" y="-335.3" fill="#000" font-family="Helvetica,sans-Serif" font-size="11" text-anchor="start">...</text><polygon fill="#fff" stroke="transparent" points="261 -310.2 261 -329.2 356 -329.2 356 -310.2 261 -310.2"/><polygon fill="none" stroke="#000" points="261 -310.2 261 -329.2 356 -329.2 356 -310.2 261 -310.2"/><text x="264" y="-316.3" fill="#000" font-family="Helvetica,sans-Serif" font-size="11" text-anchor="start">&lt; 6</text><polygon fill="#fff" stroke="transparent" points="356 -310.2 356 -329.2 405 -329.2 405 -310.2 356 -310.2"/><polygon fill="none" stroke="#000" points="356 -310.2 356 -329.2 405 -329.2 405 -310.2 356 -310.2"/><polygon fill="#fff" stroke="transparent" points="405 -310.2 405 -329.2 455 -329.2 455 -310.2 405 -310.2"/><polygon fill="none" stroke="#000" points="405 -310.2 405 -329.2 455 -329.2 455 -310.2 405 -310.2"/></a></g></g><g id="edge2" class="edge"><title>prescriptions:w-&gt;drugs:e</title><path fill="none" stroke="#000" d="M246.521,-406.6504C212.1928,-427.1651 265.6307,-532.2 210,-532.2"/><polygon fill="#000" stroke="#000" points="253.218 -405.055 261.835 -406.702 257.109 -404.127 261 -403.2 261 -403.2 261 -403.2 257.109 -404.127 260.165 -399.698 253.218 -405.055 253.218 -405.055"/><ellipse cx="250.105" cy="-405.796" fill="none" stroke="#000" rx="3.2" ry="3.2"/></g></g></svg>