<svg xmlns="http://www.w3.org/2000/svg" xmlns:xlink="http://www.w3.org/1999/xlink" width="648" height="611pt" viewBox="0 0 486 611.2"><g id="graph0" class="graph" transform="scale(1 1) rotate(0) translate(4 607.2)"><title>oneDegreeRelationshipsDiagram</title><polygon fill="#fff" stroke="transparent" points="-4 4 -4 -607.2 482 -607.2 482 4 -4 4"/><text x="72.494" y="-7.3" fill="#000" font-family="Helvetica,sans-Serif" font-size="11" text-anchor="middle">Generated by SchemaSpy</text><g id="node1" class="node"><title>procedure_answers</title><g id="a_node1"><a target="_top" xlink:href="../../tables/procedure_answers.html" xlink:title="procedure_answers"><polygon fill="#fff" stroke="transparent" points="237 -205.7 237 -383.7 470 -383.7 470 -205.7 237 -205.7"/><polygon fill="#f5f5f5" stroke="transparent" points="239.5 -358.7 239.5 -381.7 468.5 -381.7 468.5 -358.7 239.5 -358.7"/><polygon fill="none" stroke="#000" points="239.5 -358.7 239.5 -381.7 468.5 -381.7 468.5 -358.7 239.5 -358.7"/><text x="244.5" y="-367.3" fill="#000" font-family="Helvetica,sans-Serif" font-size="11" font-weight="bold" text-anchor="start">procedure_answers</text><text x="433.544" y="-366.8" fill="#000" font-family="Helvetica,sans-Serif" font-size="11" text-anchor="start">[table]</text><polygon fill="none" stroke="#000" points="239.5 -336.7 239.5 -358.7 401.5 -358.7 401.5 -336.7 239.5 -336.7"/><image width="11" height="12" x="244.5" y="-353.7" preserveAspectRatio="xMinYMin meet" xlink:href="../../images/primaryKeys.png"/><text x="259.5" y="-343.8" fill="#000" font-family="Helvetica,sans-Serif" font-size="11" text-anchor="start">procedure_order_id</text><polygon fill="none" stroke="#000" points="401.5 -336.7 401.5 -358.7 468.5 -358.7 468.5 -336.7 401.5 -336.7"/><text x="404.5" y="-344.4" fill="#000" font-family="Helvetica,sans-Serif" font-size="11" text-anchor="start">bigint[19]</text><polygon fill="none" stroke="#000" points="239.5 -314.7 239.5 -336.7 401.5 -336.7 401.5 -314.7 239.5 -314.7"/><image width="11" height="12" x="244.5" y="-331.7" preserveAspectRatio="xMinYMin meet" xlink:href="../../images/primaryKeys.png"/><text x="259.5" y="-321.8" fill="#000" font-family="Helvetica,sans-Serif" font-size="11" text-anchor="start">procedure_order_seq</text><polygon fill="none" stroke="#000" points="401.5 -314.7 401.5 -336.7 468.5 -336.7 468.5 -314.7 401.5 -314.7"/><text x="404.5" y="-322.4" fill="#000" font-family="Helvetica,sans-Serif" font-size="11" text-anchor="start">int[10]</text><polygon fill="none" stroke="#000" points="239.5 -292.7 239.5 -314.7 401.5 -314.7 401.5 -292.7 239.5 -292.7"/><image width="11" height="12" x="244.5" y="-309.7" preserveAspectRatio="xMinYMin meet" xlink:href="../../images/primaryKeys.png"/><text x="259.5" y="-299.8" fill="#000" font-family="Helvetica,sans-Serif" font-size="11" text-anchor="start">question_code</text><polygon fill="none" stroke="#000" points="401.5 -292.7 401.5 -314.7 468.5 -314.7 468.5 -292.7 401.5 -292.7"/><text x="404.5" y="-300.4" fill="#000" font-family="Helvetica,sans-Serif" font-size="11" text-anchor="start">varchar[31]</text><polygon fill="none" stroke="#000" points="239.5 -270.7 239.5 -292.7 401.5 -292.7 401.5 -270.7 239.5 -270.7"/><image width="11" height="12" x="244.5" y="-287.7" preserveAspectRatio="xMinYMin meet" xlink:href="../../images/primaryKeys.png"/><text x="259.5" y="-277.8" fill="#000" font-family="Helvetica,sans-Serif" font-size="11" text-anchor="start">answer_seq</text><polygon fill="none" stroke="#000" points="401.5 -270.7 401.5 -292.7 468.5 -292.7 468.5 -270.7 401.5 -270.7"/><text x="404.5" y="-278.4" fill="#000" font-family="Helvetica,sans-Serif" font-size="11" text-anchor="start">int[10]</text><polygon fill="none" stroke="#000" points="239.5 -248.7 239.5 -270.7 401.5 -270.7 401.5 -248.7 239.5 -248.7"/><text x="259.5" y="-255.8" fill="#000" font-family="Helvetica,sans-Serif" font-size="11" text-anchor="start">answer</text><polygon fill="none" stroke="#000" points="401.5 -248.7 401.5 -270.7 468.5 -270.7 468.5 -248.7 401.5 -248.7"/><text x="404.437" y="-256.4" fill="#000" font-family="Helvetica,sans-Serif" font-size="11" text-anchor="start">varchar[255]</text><polygon fill="none" stroke="#000" points="239.5 -226.7 239.5 -248.7 401.5 -248.7 401.5 -226.7 239.5 -226.7"/><text x="259.5" y="-233.8" fill="#000" font-family="Helvetica,sans-Serif" font-size="11" text-anchor="start">procedure_code</text><polygon fill="none" stroke="#000" points="401.5 -226.7 401.5 -248.7 468.5 -248.7 468.5 -226.7 401.5 -226.7"/><text x="404.5" y="-234.4" fill="#000" font-family="Helvetica,sans-Serif" font-size="11" text-anchor="start">varchar[31]</text><polygon fill="#fff" stroke="transparent" points="239.5 -207.7 239.5 -226.7 324.5 -226.7 324.5 -207.7 239.5 -207.7"/><polygon fill="none" stroke="#000" points="239.5 -207.7 239.5 -226.7 324.5 -226.7 324.5 -207.7 239.5 -207.7"/><text x="242.5" y="-213.8" fill="#000" font-family="Helvetica,sans-Serif" font-size="11" text-anchor="start">&lt; 2</text><polygon fill="#fff" stroke="transparent" points="324.5 -207.7 324.5 -226.7 401.5 -226.7 401.5 -207.7 324.5 -207.7"/><polygon fill="none" stroke="#000" points="324.5 -207.7 324.5 -226.7 401.5 -226.7 401.5 -207.7 324.5 -207.7"/><polygon fill="#fff" stroke="transparent" points="401.5 -207.7 401.5 -226.7 468.5 -226.7 468.5 -207.7 401.5 -207.7"/><polygon fill="none" stroke="#000" points="401.5 -207.7 401.5 -226.7 468.5 -226.7 468.5 -207.7 401.5 -207.7"/><text x="449.905" y="-213.8" fill="#000" font-family="Helvetica,sans-Serif" font-size="11" text-anchor="start">0 &gt;</text><polygon fill="none" stroke="#000" stroke-width="2" points="238 -206.7 238 -382.7 469 -382.7 469 -206.7 238 -206.7"/></a></g></g><g id="node2" class="node"><title>procedure_order</title><g id="a_node2"><a target="_top" xlink:href="../../tables/procedure_order.html" xlink:title="procedure_order"><polygon fill="#fff" stroke="transparent" points="13.5 -186.2 13.5 -599.2 182.5 -599.2 182.5 -186.2 13.5 -186.2"/><polygon fill="#f5f5f5" stroke="transparent" points="14 -575.7 14 -598.7 183 -598.7 183 -575.7 14 -575.7"/><polygon fill="none" stroke="#000" points="14 -575.7 14 -598.7 183 -598.7 183 -575.7 14 -575.7"/><text x="19" y="-584.3" fill="#000" font-family="Helvetica,sans-Serif" font-size="11" font-weight="bold" text-anchor="start">procedure_order</text><text x="148.044" y="-583.8" fill="#000" font-family="Helvetica,sans-Serif" font-size="11" text-anchor="start">[table]</text><polygon fill="none" stroke="#000" points="14 -553.7 14 -575.7 183 -575.7 183 -553.7 14 -553.7"/><image width="11" height="12" x="19" y="-570.7" preserveAspectRatio="xMinYMin meet" xlink:href="../../images/primaryKeys.png"/><text x="34" y="-560.8" fill="#000" font-family="Helvetica,sans-Serif" font-size="11" text-anchor="start">procedure_order_id</text><polygon fill="#fff" stroke="transparent" points="14 -531.7 14 -553.7 183 -553.7 183 -531.7 14 -531.7"/><polygon fill="none" stroke="#000" points="14 -531.7 14 -553.7 183 -553.7 183 -531.7 14 -531.7"/><text x="34" y="-538.8" fill="#000" font-family="Helvetica,sans-Serif" font-size="11" text-anchor="start">uuid</text><polygon fill="none" stroke="#000" points="14 -509.7 14 -531.7 183 -531.7 183 -509.7 14 -509.7"/><image width="11" height="12" x="19" y="-526.7" preserveAspectRatio="xMinYMin meet" xlink:href="../../images/foreignKeys.png"/><text x="34" y="-516.8" fill="#000" font-family="Helvetica,sans-Serif" font-size="11" text-anchor="start">provider_id</text><polygon fill="#fff" stroke="transparent" points="14 -487.7 14 -509.7 183 -509.7 183 -487.7 14 -487.7"/><polygon fill="none" stroke="#000" points="14 -487.7 14 -509.7 183 -509.7 183 -487.7 14 -487.7"/><image width="11" height="12" x="19" y="-504.7" preserveAspectRatio="xMinYMin meet" xlink:href="../../images/foreignKeys.png"/><text x="34" y="-494.8" fill="#000" font-family="Helvetica,sans-Serif" font-size="11" text-anchor="start">patient_id</text><polygon fill="none" stroke="#000" points="14 -465.7 14 -487.7 183 -487.7 183 -465.7 14 -465.7"/><image width="11" height="12" x="19" y="-482.7" preserveAspectRatio="xMinYMin meet" xlink:href="../../images/foreignKeys.png"/><text x="34" y="-472.8" fill="#000" font-family="Helvetica,sans-Serif" font-size="11" text-anchor="start">encounter_id</text><polygon fill="#fff" stroke="transparent" points="14 -443.7 14 -465.7 183 -465.7 183 -443.7 14 -443.7"/><polygon fill="none" stroke="#000" points="14 -443.7 14 -465.7 183 -465.7 183 -443.7 14 -443.7"/><text x="34" y="-450.8" fill="#000" font-family="Helvetica,sans-Serif" font-size="11" text-anchor="start">date_ordered</text><polygon fill="none" stroke="#000" points="14 -421.7 14 -443.7 183 -443.7 183 -421.7 14 -421.7"/><image width="11" height="12" x="19" y="-438.7" preserveAspectRatio="xMinYMin meet" xlink:href="../../images/foreignKeys.png"/><text x="34" y="-428.8" fill="#000" font-family="Helvetica,sans-Serif" font-size="11" text-anchor="start">order_priority</text><polygon fill="none" stroke="#000" points="14 -399.7 14 -421.7 183 -421.7 183 -399.7 14 -399.7"/><image width="11" height="12" x="19" y="-416.7" preserveAspectRatio="xMinYMin meet" xlink:href="../../images/foreignKeys.png"/><text x="34" y="-406.8" fill="#000" font-family="Helvetica,sans-Serif" font-size="11" text-anchor="start">order_status</text><polygon fill="none" stroke="#000" points="14 -377.7 14 -399.7 183 -399.7 183 -377.7 14 -377.7"/><image width="11" height="12" x="19" y="-394.7" preserveAspectRatio="xMinYMin meet" xlink:href="../../images/foreignKeys.png"/><text x="34" y="-384.8" fill="#000" font-family="Helvetica,sans-Serif" font-size="11" text-anchor="start">lab_id</text><polygon fill="none" stroke="#000" points="14 -355.7 14 -377.7 183 -377.7 183 -355.7 14 -355.7"/><image width="11" height="12" x="19" y="-372.7" preserveAspectRatio="xMinYMin meet" xlink:href="../../images/foreignKeys.png"/><text x="34" y="-362.8" fill="#000" font-family="Helvetica,sans-Serif" font-size="11" text-anchor="start">specimen_type</text><polygon fill="none" stroke="#000" points="14 -333.7 14 -355.7 183 -355.7 183 -333.7 14 -333.7"/><image width="11" height="12" x="19" y="-350.7" preserveAspectRatio="xMinYMin meet" xlink:href="../../images/foreignKeys.png"/><text x="34" y="-340.8" fill="#000" font-family="Helvetica,sans-Serif" font-size="11" text-anchor="start">specimen_location</text><polygon fill="none" stroke="#000" points="14 -311.7 14 -333.7 183 -333.7 183 -311.7 14 -311.7"/><image width="11" height="12" x="19" y="-328.7" preserveAspectRatio="xMinYMin meet" xlink:href="../../images/foreignKeys.png"/><text x="34" y="-318.8" fill="#000" font-family="Helvetica,sans-Serif" font-size="11" text-anchor="start">billing_type</text><polygon fill="none" stroke="#000" points="14 -289.7 14 -311.7 183 -311.7 183 -289.7 14 -289.7"/><image width="11" height="12" x="19" y="-306.7" preserveAspectRatio="xMinYMin meet" xlink:href="../../images/foreignKeys.png"/><text x="34" y="-296.8" fill="#000" font-family="Helvetica,sans-Serif" font-size="11" text-anchor="start">collector_id</text><polygon fill="none" stroke="#000" points="14 -267.7 14 -289.7 183 -289.7 183 -267.7 14 -267.7"/><image width="11" height="12" x="19" y="-284.7" preserveAspectRatio="xMinYMin meet" xlink:href="../../images/foreignKeys.png"/><text x="34" y="-274.8" fill="#000" font-family="Helvetica,sans-Serif" font-size="11" text-anchor="start">account_facility</text><polygon fill="none" stroke="#000" points="14 -245.7 14 -267.7 183 -267.7 183 -245.7 14 -245.7"/><image width="11" height="12" x="19" y="-262.7" preserveAspectRatio="xMinYMin meet" xlink:href="../../images/foreignKeys.png"/><text x="34" y="-252.8" fill="#000" font-family="Helvetica,sans-Serif" font-size="11" text-anchor="start">procedure_type</text><polygon fill="none" stroke="#000" points="14 -223.7 14 -245.7 183 -245.7 183 -223.7 14 -223.7"/><image width="11" height="12" x="19" y="-240.7" preserveAspectRatio="xMinYMin meet" xlink:href="../../images/foreignKeys.png"/><text x="34" y="-230.8" fill="#000" font-family="Helvetica,sans-Serif" font-size="11" text-anchor="start">procedure_order_type</text><polygon fill="none" stroke="#000" points="14 -204.7 14 -223.7 183 -223.7 183 -204.7 14 -204.7"/><text x="17" y="-210.8" fill="#000" font-family="Helvetica,sans-Serif" font-size="11" text-anchor="start">...</text><polygon fill="#fff" stroke="transparent" points="14 -185.7 14 -204.7 95 -204.7 95 -185.7 14 -185.7"/><polygon fill="none" stroke="#000" points="14 -185.7 14 -204.7 95 -204.7 95 -185.7 14 -185.7"/><text x="17" y="-191.8" fill="#000" font-family="Helvetica,sans-Serif" font-size="11" text-anchor="start">&lt; 13</text><polygon fill="#fff" stroke="transparent" points="95 -185.7 95 -204.7 134 -204.7 134 -185.7 95 -185.7"/><polygon fill="none" stroke="#000" points="95 -185.7 95 -204.7 134 -204.7 134 -185.7 95 -185.7"/><polygon fill="#fff" stroke="transparent" points="134 -185.7 134 -204.7 183 -204.7 183 -185.7 134 -185.7"/><polygon fill="none" stroke="#000" points="134 -185.7 134 -204.7 183 -204.7 183 -185.7 134 -185.7"/><text x="164.405" y="-191.8" fill="#000" font-family="Helvetica,sans-Serif" font-size="11" text-anchor="start">3 &gt;</text></a></g></g><g id="edge1" class="edge"><title>procedure_answers:w-&gt;procedure_order:e</title><path fill="none" stroke="#000" d="M224.8112,-349.7096C155.241,-371.5859 277.0151,-564.7 183,-564.7"/><polygon fill="#000" stroke="#000" points="231.574 -348.784 239.988 -351.267 235.537 -348.242 239.5 -347.7 239.5 -347.7 239.5 -347.7 235.537 -348.242 239.012 -344.133 231.574 -348.784 231.574 -348.784"/><ellipse cx="228.403" cy="-349.218" fill="none" stroke="#000" rx="3.2" ry="3.2"/></g><g id="node3" class="node"><title>procedure_questions</title><g id="a_node3"><a target="_top" xlink:href="../../tables/procedure_questions.html" xlink:title="procedure_questions"><polygon fill="#fff" stroke="transparent" points="8 -38.2 8 -165.2 188 -165.2 188 -38.2 8 -38.2"/><polygon fill="#f5f5f5" stroke="transparent" points="8 -141.7 8 -164.7 188 -164.7 188 -141.7 8 -141.7"/><polygon fill="none" stroke="#000" points="8 -141.7 8 -164.7 188 -164.7 188 -141.7 8 -141.7"/><text x="13" y="-150.3" fill="#000" font-family="Helvetica,sans-Serif" font-size="11" font-weight="bold" text-anchor="start">procedure_questions</text><text x="153.522" y="-149.8" fill="#000" font-family="Helvetica,sans-Serif" font-size="11" text-anchor="start">[table]</text><polygon fill="none" stroke="#000" points="8 -119.7 8 -141.7 188 -141.7 188 -119.7 8 -119.7"/><image width="11" height="12" x="13" y="-136.7" preserveAspectRatio="xMinYMin meet" xlink:href="../../images/primaryKeys.png"/><text x="37" y="-126.8" fill="#000" font-family="Helvetica,sans-Serif" font-size="11" text-anchor="start">lab_id</text><polygon fill="none" stroke="#000" points="8 -97.7 8 -119.7 188 -119.7 188 -97.7 8 -97.7"/><image width="11" height="12" x="13" y="-114.7" preserveAspectRatio="xMinYMin meet" xlink:href="../../images/primaryKeys.png"/><text x="37" y="-104.8" fill="#000" font-family="Helvetica,sans-Serif" font-size="11" text-anchor="start">procedure_code</text><polygon fill="none" stroke="#000" points="8 -75.7 8 -97.7 188 -97.7 188 -75.7 8 -75.7"/><image width="11" height="12" x="13" y="-92.7" preserveAspectRatio="xMinYMin meet" xlink:href="../../images/primaryKeys.png"/><text x="37" y="-82.8" fill="#000" font-family="Helvetica,sans-Serif" font-size="11" text-anchor="start">question_code</text><polygon fill="none" stroke="#000" points="8 -56.7 8 -75.7 188 -75.7 188 -56.7 8 -56.7"/><text x="11" y="-62.8" fill="#000" font-family="Helvetica,sans-Serif" font-size="11" text-anchor="start">...</text><polygon fill="#fff" stroke="transparent" points="8 -37.7 8 -56.7 92 -56.7 92 -37.7 8 -37.7"/><polygon fill="none" stroke="#000" points="8 -37.7 8 -56.7 92 -56.7 92 -37.7 8 -37.7"/><text x="11" y="-43.8" fill="#000" font-family="Helvetica,sans-Serif" font-size="11" text-anchor="start">&lt; 2</text><polygon fill="#fff" stroke="transparent" points="92 -37.7 92 -56.7 135 -56.7 135 -37.7 92 -37.7"/><polygon fill="none" stroke="#000" points="92 -37.7 92 -56.7 135 -56.7 135 -37.7 92 -37.7"/><polygon fill="#fff" stroke="transparent" points="135 -37.7 135 -56.7 188 -56.7 188 -37.7 135 -37.7"/><polygon fill="none" stroke="#000" points="135 -37.7 135 -56.7 188 -56.7 188 -37.7 135 -37.7"/><text x="169.405" y="-43.8" fill="#000" font-family="Helvetica,sans-Serif" font-size="11" text-anchor="start">1 &gt;</text></a></g></g><g id="edge2" class="edge"><title>procedure_answers:w-&gt;procedure_questions:e</title><path fill="none" stroke="#000" d="M224.9338,-301.6904C156.2115,-279.8141 281.5089,-86.7 188,-86.7"/><polygon fill="#000" stroke="#000" points="231.575 -302.607 239.008 -307.266 235.537 -303.153 239.5 -303.7 239.5 -303.7 239.5 -303.7 235.537 -303.153 239.992 -300.134 231.575 -302.607 231.575 -302.607"/><ellipse cx="228.405" cy="-302.169" fill="none" stroke="#000" rx="3.2" ry="3.2"/></g></g></svg>