<svg xmlns="http://www.w3.org/2000/svg" xmlns:xlink="http://www.w3.org/1999/xlink" width="280pt" height="767pt" viewBox="0 0 280 767"><g id="graph0" class="graph" transform="scale(1 1) rotate(0) translate(4 763)"><title>orphans</title><polygon fill="#fff" stroke="transparent" points="-4 4 -4 -763 276 -763 276 4 -4 4"/><g id="node1" class="node"><title>onsite_mail</title><g id="a_node1"><a target="_top" xlink:href="../../tables/onsite_mail.html" xlink:title="onsite_mail"><polygon fill="#fff" stroke="transparent" points="8 -4 8 -534 264 -534 264 -4 8 -4"/><polygon fill="#f5f5f5" stroke="transparent" points="10 -509 10 -532 262 -532 262 -509 10 -509"/><polygon fill="none" stroke="#000" points="10 -509 10 -532 262 -532 262 -509 10 -509"/><text x="15" y="-517.6" fill="#000" font-family="Helvetica,sans-Serif" font-size="11" font-weight="bold" text-anchor="start">onsite_mail</text><text x="227.044" y="-517.1" fill="#000" font-family="Helvetica,sans-Serif" font-size="11" text-anchor="start">[table]</text><polygon fill="none" stroke="#000" points="10 -487 10 -509 151 -509 151 -487 10 -487"/><image width="11" height="12" x="15" y="-504" preserveAspectRatio="xMinYMin meet" xlink:href="../../images/primaryKeys.png"/><text x="30" y="-494.1" fill="#000" font-family="Helvetica,sans-Serif" font-size="11" text-anchor="start">id</text><polygon fill="none" stroke="#000" points="151 -487 151 -509 262 -509 262 -487 151 -487"/><text x="154" y="-494.7" fill="#000" font-family="Helvetica,sans-Serif" font-size="11" text-anchor="start">bigint[19]</text><polygon fill="none" stroke="#000" points="10 -465 10 -487 151 -487 151 -465 10 -465"/><text x="30" y="-472.1" fill="#000" font-family="Helvetica,sans-Serif" font-size="11" text-anchor="start">date</text><polygon fill="none" stroke="#000" points="151 -465 151 -487 262 -487 262 -465 151 -465"/><text x="154" y="-472.7" fill="#000" font-family="Helvetica,sans-Serif" font-size="11" text-anchor="start">datetime[19]</text><polygon fill="#fff" stroke="transparent" points="10 -443 10 -465 151 -465 151 -443 10 -443"/><polygon fill="none" stroke="#000" points="10 -443 10 -465 151 -465 151 -443 10 -443"/><text x="30" y="-450.1" fill="#000" font-family="Helvetica,sans-Serif" font-size="11" text-anchor="start">owner</text><polygon fill="none" stroke="#000" points="151 -443 151 -465 262 -465 262 -443 151 -443"/><text x="154" y="-450.7" fill="#000" font-family="Helvetica,sans-Serif" font-size="11" text-anchor="start">varchar[128]</text><polygon fill="none" stroke="#000" points="10 -421 10 -443 151 -443 151 -421 10 -421"/><text x="30" y="-428.1" fill="#000" font-family="Helvetica,sans-Serif" font-size="11" text-anchor="start">user</text><polygon fill="none" stroke="#000" points="151 -421 151 -443 262 -443 262 -421 151 -421"/><text x="154" y="-428.7" fill="#000" font-family="Helvetica,sans-Serif" font-size="11" text-anchor="start">varchar[255]</text><polygon fill="none" stroke="#000" points="10 -399 10 -421 151 -421 151 -399 10 -399"/><text x="30" y="-406.1" fill="#000" font-family="Helvetica,sans-Serif" font-size="11" text-anchor="start">groupname</text><polygon fill="none" stroke="#000" points="151 -399 151 -421 262 -421 262 -399 151 -399"/><text x="154" y="-406.7" fill="#000" font-family="Helvetica,sans-Serif" font-size="11" text-anchor="start">varchar[255]</text><polygon fill="none" stroke="#000" points="10 -377 10 -399 151 -399 151 -377 10 -377"/><text x="30" y="-384.1" fill="#000" font-family="Helvetica,sans-Serif" font-size="11" text-anchor="start">activity</text><polygon fill="none" stroke="#000" points="151 -377 151 -399 262 -399 262 -377 151 -377"/><text x="154" y="-384.7" fill="#000" font-family="Helvetica,sans-Serif" font-size="11" text-anchor="start">tinyint[3]</text><polygon fill="none" stroke="#000" points="10 -355 10 -377 151 -377 151 -355 10 -355"/><text x="30" y="-362.1" fill="#000" font-family="Helvetica,sans-Serif" font-size="11" text-anchor="start">authorized</text><polygon fill="none" stroke="#000" points="151 -355 151 -377 262 -377 262 -355 151 -355"/><text x="154" y="-362.7" fill="#000" font-family="Helvetica,sans-Serif" font-size="11" text-anchor="start">tinyint[3]</text><polygon fill="none" stroke="#000" points="10 -333 10 -355 151 -355 151 -333 10 -333"/><text x="30" y="-340.1" fill="#000" font-family="Helvetica,sans-Serif" font-size="11" text-anchor="start">header</text><polygon fill="none" stroke="#000" points="151 -333 151 -355 262 -355 262 -333 151 -333"/><text x="154" y="-340.7" fill="#000" font-family="Helvetica,sans-Serif" font-size="11" text-anchor="start">varchar[255]</text><polygon fill="none" stroke="#000" points="10 -311 10 -333 151 -333 151 -311 10 -311"/><text x="30" y="-318.1" fill="#000" font-family="Helvetica,sans-Serif" font-size="11" text-anchor="start">title</text><polygon fill="none" stroke="#000" points="151 -311 151 -333 262 -333 262 -311 151 -311"/><text x="154" y="-318.7" fill="#000" font-family="Helvetica,sans-Serif" font-size="11" text-anchor="start">varchar[255]</text><polygon fill="none" stroke="#000" points="10 -289 10 -311 151 -311 151 -289 10 -289"/><text x="30" y="-296.1" fill="#000" font-family="Helvetica,sans-Serif" font-size="11" text-anchor="start">body</text><polygon fill="none" stroke="#000" points="151 -289 151 -311 262 -311 262 -289 151 -289"/><text x="153.612" y="-296.7" fill="#000" font-family="Helvetica,sans-Serif" font-size="11" text-anchor="start">longtext[2147483647]</text><polygon fill="none" stroke="#000" points="10 -267 10 -289 151 -289 151 -267 10 -267"/><text x="30" y="-274.1" fill="#000" font-family="Helvetica,sans-Serif" font-size="11" text-anchor="start">recipient_id</text><polygon fill="none" stroke="#000" points="151 -267 151 -289 262 -289 262 -267 151 -267"/><text x="154" y="-274.7" fill="#000" font-family="Helvetica,sans-Serif" font-size="11" text-anchor="start">varchar[128]</text><polygon fill="none" stroke="#000" points="10 -245 10 -267 151 -267 151 -245 10 -245"/><text x="30" y="-252.1" fill="#000" font-family="Helvetica,sans-Serif" font-size="11" text-anchor="start">recipient_name</text><polygon fill="none" stroke="#000" points="151 -245 151 -267 262 -267 262 -245 151 -245"/><text x="154" y="-252.7" fill="#000" font-family="Helvetica,sans-Serif" font-size="11" text-anchor="start">varchar[255]</text><polygon fill="none" stroke="#000" points="10 -223 10 -245 151 -245 151 -223 10 -223"/><text x="30" y="-230.1" fill="#000" font-family="Helvetica,sans-Serif" font-size="11" text-anchor="start">sender_id</text><polygon fill="none" stroke="#000" points="151 -223 151 -245 262 -245 262 -223 151 -223"/><text x="154" y="-230.7" fill="#000" font-family="Helvetica,sans-Serif" font-size="11" text-anchor="start">varchar[128]</text><polygon fill="none" stroke="#000" points="10 -201 10 -223 151 -223 151 -201 10 -201"/><text x="30" y="-208.1" fill="#000" font-family="Helvetica,sans-Serif" font-size="11" text-anchor="start">sender_name</text><polygon fill="none" stroke="#000" points="151 -201 151 -223 262 -223 262 -201 151 -201"/><text x="154" y="-208.7" fill="#000" font-family="Helvetica,sans-Serif" font-size="11" text-anchor="start">varchar[255]</text><polygon fill="none" stroke="#000" points="10 -179 10 -201 151 -201 151 -179 10 -179"/><text x="30" y="-186.1" fill="#000" font-family="Helvetica,sans-Serif" font-size="11" text-anchor="start">assigned_to</text><polygon fill="none" stroke="#000" points="151 -179 151 -201 262 -201 262 -179 151 -179"/><text x="154" y="-186.7" fill="#000" font-family="Helvetica,sans-Serif" font-size="11" text-anchor="start">varchar[255]</text><polygon fill="none" stroke="#000" points="10 -157 10 -179 151 -179 151 -157 10 -157"/><text x="30" y="-164.1" fill="#000" font-family="Helvetica,sans-Serif" font-size="11" text-anchor="start">deleted</text><polygon fill="none" stroke="#000" points="151 -157 151 -179 262 -179 262 -157 151 -157"/><text x="154" y="-164.7" fill="#000" font-family="Helvetica,sans-Serif" font-size="11" text-anchor="start">tinyint[3]</text><polygon fill="none" stroke="#000" points="10 -135 10 -157 151 -157 151 -135 10 -135"/><text x="30" y="-142.1" fill="#000" font-family="Helvetica,sans-Serif" font-size="11" text-anchor="start">delete_date</text><polygon fill="none" stroke="#000" points="151 -135 151 -157 262 -157 262 -135 151 -135"/><text x="154" y="-142.7" fill="#000" font-family="Helvetica,sans-Serif" font-size="11" text-anchor="start">datetime[19]</text><polygon fill="none" stroke="#000" points="10 -113 10 -135 151 -135 151 -113 10 -113"/><text x="30" y="-120.1" fill="#000" font-family="Helvetica,sans-Serif" font-size="11" text-anchor="start">mtype</text><polygon fill="none" stroke="#000" points="151 -113 151 -135 262 -135 262 -113 151 -113"/><text x="154" y="-120.7" fill="#000" font-family="Helvetica,sans-Serif" font-size="11" text-anchor="start">varchar[128]</text><polygon fill="none" stroke="#000" points="10 -91 10 -113 151 -113 151 -91 10 -91"/><text x="30" y="-98.1" fill="#000" font-family="Helvetica,sans-Serif" font-size="11" text-anchor="start">message_status</text><polygon fill="none" stroke="#000" points="151 -91 151 -113 262 -113 262 -91 151 -91"/><text x="154" y="-98.7" fill="#000" font-family="Helvetica,sans-Serif" font-size="11" text-anchor="start">varchar[20]</text><polygon fill="none" stroke="#000" points="10 -69 10 -91 151 -91 151 -69 10 -69"/><text x="30" y="-76.1" fill="#000" font-family="Helvetica,sans-Serif" font-size="11" text-anchor="start">mail_chain</text><polygon fill="none" stroke="#000" points="151 -69 151 -91 262 -91 262 -69 151 -69"/><text x="154" y="-76.7" fill="#000" font-family="Helvetica,sans-Serif" font-size="11" text-anchor="start">int[10]</text><polygon fill="none" stroke="#000" points="10 -47 10 -69 151 -69 151 -47 10 -47"/><text x="30" y="-54.1" fill="#000" font-family="Helvetica,sans-Serif" font-size="11" text-anchor="start">reply_mail_chain</text><polygon fill="none" stroke="#000" points="151 -47 151 -69 262 -69 262 -47 151 -47"/><text x="154" y="-54.7" fill="#000" font-family="Helvetica,sans-Serif" font-size="11" text-anchor="start">int[10]</text><polygon fill="none" stroke="#000" points="10 -25 10 -47 151 -47 151 -25 10 -25"/><text x="30" y="-32.1" fill="#000" font-family="Helvetica,sans-Serif" font-size="11" text-anchor="start">is_msg_encrypted</text><polygon fill="none" stroke="#000" points="151 -25 151 -47 262 -47 262 -25 151 -25"/><text x="154" y="-32.7" fill="#000" font-family="Helvetica,sans-Serif" font-size="11" text-anchor="start">tinyint[3]</text><polygon fill="#fff" stroke="transparent" points="10 -6 10 -25 85 -25 85 -6 10 -6"/><polygon fill="none" stroke="#000" points="10 -6 10 -25 85 -25 85 -6 10 -6"/><text x="13" y="-12.1" fill="#000" font-family="Helvetica,sans-Serif" font-size="11" text-anchor="start">&lt; 0</text><polygon fill="#fff" stroke="transparent" points="85 -6 85 -25 151 -25 151 -6 85 -6"/><polygon fill="none" stroke="#000" points="85 -6 85 -25 151 -25 151 -6 85 -6"/><polygon fill="#fff" stroke="transparent" points="151 -6 151 -25 262 -25 262 -6 151 -6"/><polygon fill="none" stroke="#000" points="151 -6 151 -25 262 -25 262 -6 151 -6"/><text x="243.405" y="-12.1" fill="#000" font-family="Helvetica,sans-Serif" font-size="11" text-anchor="start">0 &gt;</text><polygon fill="none" stroke="#000" stroke-width="2" points="9 -5 9 -533 263 -533 263 -5 9 -5"/></a></g></g><g id="node2" class="node"><title>onsite_messages</title><g id="a_node2"><a target="_top" xlink:href="../../tables/onsite_messages.html" xlink:title="onsite_messages"><polygon fill="#fff" stroke="transparent" points="11 -555 11 -755 261 -755 261 -555 11 -555"/><polygon fill="#f5f5f5" stroke="transparent" points="13 -730 13 -753 259 -753 259 -730 13 -730"/><polygon fill="none" stroke="#000" points="13 -730 13 -753 259 -753 259 -730 13 -730"/><text x="18" y="-738.6" fill="#000" font-family="Helvetica,sans-Serif" font-size="11" font-weight="bold" text-anchor="start">onsite_messages</text><text x="224.044" y="-738.1" fill="#000" font-family="Helvetica,sans-Serif" font-size="11" text-anchor="start">[table]</text><polygon fill="none" stroke="#000" points="13 -708 13 -730 148 -730 148 -708 13 -708"/><image width="11" height="12" x="18" y="-725" preserveAspectRatio="xMinYMin meet" xlink:href="../../images/primaryKeys.png"/><text x="33" y="-715.1" fill="#000" font-family="Helvetica,sans-Serif" font-size="11" text-anchor="start">id</text><polygon fill="none" stroke="#000" points="148 -708 148 -730 259 -730 259 -708 148 -708"/><text x="151" y="-715.7" fill="#000" font-family="Helvetica,sans-Serif" font-size="11" text-anchor="start">int[10]</text><polygon fill="none" stroke="#000" points="13 -686 13 -708 148 -708 148 -686 13 -686"/><text x="33" y="-693.1" fill="#000" font-family="Helvetica,sans-Serif" font-size="11" text-anchor="start">username</text><polygon fill="none" stroke="#000" points="148 -686 148 -708 259 -708 259 -686 148 -686"/><text x="151" y="-693.7" fill="#000" font-family="Helvetica,sans-Serif" font-size="11" text-anchor="start">varchar[64]</text><polygon fill="none" stroke="#000" points="13 -664 13 -686 148 -686 148 -664 13 -664"/><text x="33" y="-671.1" fill="#000" font-family="Helvetica,sans-Serif" font-size="11" text-anchor="start">message</text><polygon fill="none" stroke="#000" points="148 -664 148 -686 259 -686 259 -664 148 -664"/><text x="150.612" y="-671.7" fill="#000" font-family="Helvetica,sans-Serif" font-size="11" text-anchor="start">longtext[2147483647]</text><polygon fill="none" stroke="#000" points="13 -642 13 -664 148 -664 148 -642 13 -642"/><text x="33" y="-649.1" fill="#000" font-family="Helvetica,sans-Serif" font-size="11" text-anchor="start">ip</text><polygon fill="none" stroke="#000" points="148 -642 148 -664 259 -664 259 -642 148 -642"/><text x="151" y="-649.7" fill="#000" font-family="Helvetica,sans-Serif" font-size="11" text-anchor="start">varchar[15]</text><polygon fill="none" stroke="#000" points="13 -620 13 -642 148 -642 148 -620 13 -620"/><text x="33" y="-627.1" fill="#000" font-family="Helvetica,sans-Serif" font-size="11" text-anchor="start">date</text><polygon fill="none" stroke="#000" points="148 -620 148 -642 259 -642 259 -620 148 -620"/><text x="151" y="-627.7" fill="#000" font-family="Helvetica,sans-Serif" font-size="11" text-anchor="start">datetime[19]</text><polygon fill="none" stroke="#000" points="13 -598 13 -620 148 -620 148 -598 13 -598"/><text x="33" y="-605.1" fill="#000" font-family="Helvetica,sans-Serif" font-size="11" text-anchor="start">sender_id</text><polygon fill="none" stroke="#000" points="148 -598 148 -620 259 -620 259 -598 148 -598"/><text x="151" y="-605.7" fill="#000" font-family="Helvetica,sans-Serif" font-size="11" text-anchor="start">varchar[64]</text><polygon fill="none" stroke="#000" points="13 -576 13 -598 148 -598 148 -576 13 -576"/><text x="33" y="-583.1" fill="#000" font-family="Helvetica,sans-Serif" font-size="11" text-anchor="start">recip_id</text><polygon fill="none" stroke="#000" points="148 -576 148 -598 259 -598 259 -576 148 -576"/><text x="151" y="-583.7" fill="#000" font-family="Helvetica,sans-Serif" font-size="11" text-anchor="start">varchar[255]</text><polygon fill="#fff" stroke="transparent" points="13 -557 13 -576 85 -576 85 -557 13 -557"/><polygon fill="none" stroke="#000" points="13 -557 13 -576 85 -576 85 -557 13 -557"/><text x="16" y="-563.1" fill="#000" font-family="Helvetica,sans-Serif" font-size="11" text-anchor="start">&lt; 0</text><polygon fill="#fff" stroke="transparent" points="85 -557 85 -576 148 -576 148 -557 85 -557"/><polygon fill="none" stroke="#000" points="85 -557 85 -576 148 -576 148 -557 85 -557"/><polygon fill="#fff" stroke="transparent" points="148 -557 148 -576 259 -576 259 -557 148 -557"/><polygon fill="none" stroke="#000" points="148 -557 148 -576 259 -576 259 -557 148 -557"/><text x="240.405" y="-563.1" fill="#000" font-family="Helvetica,sans-Serif" font-size="11" text-anchor="start">0 &gt;</text><polygon fill="none" stroke="#000" stroke-width="2" points="12 -556 12 -754 260 -754 260 -556 12 -556"/></a></g></g></g></svg>